<svg width="160" height="46" viewBox="0 0 160 46" fill="none" xmlns="http://www.w3.org/2000/svg">
  <rect width="160" height="46" rx="23" fill="url(#paint0_linear)" />
  <g filter="url(#filter0_d)">
    <path
      d="M27.5 14C33.8513 14 39 19.149 39 25.5C39 31.851 33.8513 37 27.5 37C21.149 37 16 31.851 16 25.5C16 19.149 21.149 14 27.5 14Z"
      fill="white"
    />
    <path
      d="M27.5 17.75C28.1904 17.75 28.75 18.3096 28.75 19V24.25H34C34.6904 24.25 35.25 24.8096 35.25 25.5C35.25 26.1904 34.6904 26.75 34 26.75H28.75V32C28.75 32.6904 28.1904 33.25 27.5 33.25C26.8096 33.25 26.25 32.6904 26.25 32V26.75H21C20.3096 26.75 19.75 26.1904 19.75 25.5C19.75 24.8096 20.3096 24.25 21 24.25H26.25V19C26.25 18.3096 26.8096 17.75 27.5 17.75Z"
      fill="url(#paint1_linear)"
    />
  </g>
  <text x="50" y="30" fill="white" font-family="Inter, sans-serif" font-size="18" font-weight="600" letter-spacing="0.04em">
    SOINS<span fill="#7AF0D4">+</span>
  </text>
  <defs>
    <filter id="filter0_d" x="8" y="8" width="42" height="42" filterUnits="userSpaceOnUse" color-interpolation-filters="sRGB">
      <feFlood flood-opacity="0" result="BackgroundImageFix" />
      <feColorMatrix in="SourceAlpha" type="matrix" values="0 0 0 0 0 0 0 0 0 0 0 0 0 0 0 0 0 0 127 0" result="hardAlpha" />
      <feOffset dy="2" />
      <feGaussianBlur stdDeviation="4" />
      <feComposite in2="hardAlpha" operator="out" />
      <feColorMatrix type="matrix" values="0 0 0 0 0.0431373 0 0 0 0 0.219608 0 0 0 0 0.364706 0 0 0 0.3 0" />
      <feBlend mode="normal" in2="BackgroundImageFix" result="effect1_dropShadow" />
      <feBlend mode="normal" in="SourceGraphic" in2="effect1_dropShadow" result="shape" />
    </filter>
    <linearGradient id="paint0_linear" x1="0" y1="0" x2="160" y2="46" gradientUnits="userSpaceOnUse">
      <stop stop-color="#012B46" />
      <stop offset="1" stop-color="#064F77" />
    </linearGradient>
    <linearGradient id="paint1_linear" x1="19.75" y1="17.75" x2="35.25" y2="33.25" gradientUnits="userSpaceOnUse">
      <stop stop-color="#06B6D4" />
      <stop offset="1" stop-color="#3BF3BC" />
    </linearGradient>
  </defs>
</svg>

